<!-- Generated by IcoMoon.io -->
<svg version="1.1" xmlns="http://www.w3.org/2000/svg" width="34" height="32" viewBox="0 0 34 32"><title>filled-checkmark</title>
<path d="M17.343 0.814c4.256 0 8.322 1.691 11.338 4.693 3.002 3.002 4.693 7.083 4.693 11.338s-1.691 8.322-4.693 11.338c-3.002 3.002-7.083 4.693-11.338 4.693s-8.322-1.691-11.338-4.693c-3.002-3.002-4.693-7.083-4.693-11.338s1.691-8.322 4.693-11.338c3.002-3.002 7.083-4.693 11.338-4.693zM15.346 20.008l-3.556-3.571c-0.131-0.131-0.277-0.233-0.452-0.291-0.16-0.073-0.35-0.102-0.525-0.102s-0.364 0.029-0.525 0.102c-0.16 0.073-0.321 0.175-0.452 0.291-0.262 0.262-0.408 0.612-0.408 0.976s0.146 0.714 0.408 0.976l4.533 4.532c0.131 0.131 0.277 0.233 0.452 0.306 0.16 0.073 0.35 0.102 0.525 0.102s0.364-0.029 0.525-0.102c0.16-0.073 0.321-0.175 0.452-0.306l9.386-9.386c0.131-0.131 0.233-0.277 0.306-0.452 0.073-0.16 0.102-0.35 0.102-0.525s-0.029-0.364-0.102-0.525c-0.073-0.175-0.175-0.321-0.291-0.452-0.131-0.131-0.277-0.233-0.452-0.291-0.16-0.073-0.35-0.102-0.525-0.102s-0.364 0.029-0.525 0.102c-0.16 0.073-0.321 0.175-0.452 0.306l-8.424 8.409z"></path>
</svg>
