<!-- Generated by IcoMoon.io -->
<svg version="1.1" xmlns="http://www.w3.org/2000/svg" width="33" height="32" viewBox="0 0 33 32"><title>stoke-checkmark</title>
<path d="M17.007 32.288c-1.844 0-3.701-0.321-5.437-0.962-3.153-1.162-5.891-3.353-7.722-6.172s-2.712-6.212-2.498-9.565c0.227-3.353 1.55-6.6 3.727-9.151s5.183-4.369 8.457-5.103c3.273-0.735 6.773-0.387 9.833 0.975 0.601 0.267 0.882 0.975 0.615 1.59s-0.975 0.882-1.59 0.615c-2.592-1.162-5.558-1.443-8.323-0.828-2.765 0.628-5.317 2.164-7.161 4.328s-2.966 4.916-3.153 7.748c-0.187 2.832 0.561 5.704 2.111 8.096 1.55 2.378 3.874 4.235 6.533 5.224 2.672 0.989 5.638 1.082 8.363 0.281s5.17-2.498 6.867-4.783c1.697-2.271 2.645-5.090 2.645-7.936v-1.336c0-0.668 0.534-1.202 1.202-1.202s1.202 0.534 1.202 1.202v1.336c0 3.353-1.109 6.693-3.126 9.378-2.004 2.685-4.89 4.689-8.109 5.651-1.429 0.401-2.926 0.615-4.435 0.615zM17.007 20.746c-0.321 0-0.628-0.12-0.855-0.347l-4.342-4.342c-0.468-0.468-0.468-1.229 0-1.697s1.229-0.468 1.697 0l3.487 3.487 13.627-13.64c0.468-0.468 1.229-0.468 1.697 0s0.468 1.229 0 1.697l-14.468 14.482c-0.214 0.227-0.521 0.361-0.842 0.361z"></path>
</svg>
