<svg xmlns="http://www.w3.org/2000/svg" width="141" height="20" fill="none"><path d="M25.319 19.167c0 .221-.088.433-.244.589s-.368.244-.589.244H1.153c-.221 0-.433-.088-.589-.244s-.244-.368-.244-.589.088-.433.244-.589.368-.244.589-.244h23.333c.221 0 .433.088.589.244s.244.368.244.589zM1.184 7.727c-.05-.175-.041-.361.025-.53s.185-.312.34-.407L12.383.123c.131-.081.282-.123.436-.123s.305.043.436.123L24.089 6.79c.155.095.274.238.34.407s.075.355.026.53-.155.329-.299.438-.322.169-.503.168h-2.5V15h1.667c.221 0 .433.088.589.244s.244.368.244.589-.088.433-.244.589-.368.244-.589.244H2.819c-.221 0-.433-.088-.589-.244s-.244-.368-.244-.589.088-.433.244-.589.368-.244.589-.244h1.667V8.334h-2.5c-.181 0-.358-.059-.503-.169s-.25-.263-.299-.438zm13.302 6.439c0 .221.088.433.244.589s.368.244.589.244.433-.088.589-.244.244-.368.244-.589v-5c0-.221-.088-.433-.244-.589s-.368-.244-.589-.244-.433.088-.589.244-.244.368-.244.589v5zm-5 0c0 .221.088.433.244.589s.368.244.589.244.433-.088.589-.244.244-.368.244-.589v-5c0-.221-.088-.433-.244-.589s-.368-.244-.589-.244-.433.088-.589.244-.244.368-.244.589v5z" fill="#fdb022"/><path d="M36.47 10.288c.597.107 1.104.421 1.52.944s.624 1.115.624 1.776c0 .565-.149 1.077-.448 1.536-.288.448-.709.805-1.264 1.072-.555.256-1.2.384-1.936.384h-4.448V4.88h4.24c.757 0 1.408.128 1.952.384s.955.603 1.232 1.04c.277.427.416.907.416 1.44 0 .64-.171 1.173-.512 1.6s-.8.741-1.376.944zm-4.128-.736h2.256c.597 0 1.061-.133 1.392-.4.341-.277.512-.672.512-1.184 0-.501-.171-.891-.512-1.168-.331-.288-.795-.432-1.392-.432h-2.256v3.184zm2.464 4.96c.619 0 1.104-.149 1.456-.448s.528-.715.528-1.248c0-.544-.187-.976-.56-1.296s-.869-.48-1.488-.48h-2.4v3.472h2.464zm5.182-2.96c0-.885.181-1.669.544-2.352.373-.683.875-1.211 1.504-1.584.64-.384 1.344-.576 2.112-.576.693 0 1.296.139 1.808.416.523.267.939.603 1.248 1.008v-1.28h1.84V16h-1.84v-1.312c-.309.416-.731.763-1.264 1.04s-1.141.416-1.824.416c-.757 0-1.451-.192-2.08-.576-.629-.395-1.131-.939-1.504-1.632-.363-.704-.544-1.499-.544-2.384zm7.216.032c0-.608-.128-1.136-.384-1.584-.245-.448-.571-.789-.976-1.024s-.843-.352-1.312-.352-.907.117-1.312.352c-.405.224-.736.56-.992 1.008-.245.437-.368.96-.368 1.568s.123 1.141.368 1.6a2.79 2.79 0 0 0 .992 1.056 2.63 2.63 0 0 0 1.312.352c.469 0 .907-.117 1.312-.352s.731-.576.976-1.024c.256-.459.384-.992.384-1.6zm8.684-4.544c.693 0 1.312.144 1.856.432a3.06 3.06 0 0 1 1.296 1.28c.309.565.464 1.248.464 2.048V16h-1.808v-4.928c0-.789-.197-1.392-.592-1.808-.395-.427-.933-.64-1.616-.64s-1.227.213-1.632.64c-.395.416-.592 1.019-.592 1.808V16H51.44V7.184h1.824v1.008c.299-.363.677-.645 1.136-.848.469-.203.965-.304 1.488-.304zm9.431 4.56l4.064 4.4h-2.464l-3.264-3.792V16h-1.824V4.16h1.824v6.88l3.2-3.856h2.528L65.319 11.6zm16.712-6.72v1.488h-2.96V16h-1.824V6.368h-2.976V4.88h7.76zm3.671 3.584a2.82 2.82 0 0 1 1.056-1.04c.448-.256.976-.384 1.584-.384v1.888h-.464c-.715 0-1.259.181-1.632.544-.363.363-.544.992-.544 1.888V16h-1.824V7.184h1.824v1.28zm3.709 3.088c0-.885.181-1.669.544-2.352.373-.683.875-1.211 1.504-1.584.64-.384 1.344-.576 2.112-.576.693 0 1.296.139 1.808.416.523.267.939.603 1.248 1.008v-1.28h1.84V16h-1.84v-1.312c-.309.416-.731.763-1.264 1.04s-1.141.416-1.824.416c-.757 0-1.451-.192-2.08-.576-.629-.395-1.131-.939-1.504-1.632-.363-.704-.544-1.499-.544-2.384zm7.216.032c0-.608-.128-1.136-.384-1.584-.245-.448-.571-.789-.976-1.024s-.843-.352-1.312-.352-.907.117-1.312.352c-.405.224-.736.56-.992 1.008-.245.437-.368.96-.368 1.568s.123 1.141.368 1.6a2.79 2.79 0 0 0 .992 1.056 2.63 2.63 0 0 0 1.312.352c.469 0 .907-.117 1.312-.352s.731-.576.976-1.024c.256-.459.384-.992.384-1.6zm8.684-4.544c.693 0 1.312.144 1.856.432.555.288.987.715 1.296 1.28s.464 1.248.464 2.048V16h-1.808v-4.928c0-.789-.197-1.392-.592-1.808-.395-.427-.933-.64-1.616-.64s-1.227.213-1.632.64c-.395.416-.592 1.019-.592 1.808V16h-1.824V7.184h1.824v1.008c.299-.363.677-.645 1.136-.848a3.71 3.71 0 0 1 1.488-.304zm9.143 9.104c-.694 0-1.318-.123-1.872-.368-.544-.256-.976-.597-1.296-1.024-.32-.437-.491-.923-.512-1.456h1.888a1.32 1.32 0 0 0 .528.944c.33.245.741.368 1.232.368.512 0 .906-.096 1.184-.288.288-.203.432-.459.432-.768 0-.331-.16-.576-.48-.736-.31-.16-.806-.336-1.488-.528l-1.616-.528a2.9 2.9 0 0 1-1.088-.784c-.299-.352-.448-.816-.448-1.392a2.13 2.13 0 0 1 .416-1.28c.277-.395.672-.704 1.184-.928.522-.224 1.12-.336 1.792-.336 1.002 0 1.808.256 2.416.768.618.501.949 1.189.992 2.064h-1.824c-.032-.395-.192-.709-.48-.944s-.678-.352-1.168-.352c-.48 0-.848.091-1.104.272a.84.84 0 0 0-.384.72c0 .235.085.432.256.592s.378.288.624.384l1.088.336c.64.171 1.162.347 1.568.528a2.84 2.84 0 0 1 1.072.768c.298.341.453.795.464 1.36 0 .501-.139.949-.416 1.344s-.672.704-1.184.928c-.502.224-1.094.336-1.776.336zm9.043-7.472h-1.632V16h-1.84V8.672h-1.04V7.184h1.04V6.56c0-1.013.266-1.749.8-2.208.544-.469 1.392-.704 2.544-.704v1.52c-.555 0-.944.107-1.168.32-.224.203-.336.56-.336 1.072v.624h1.632v1.488zm9.696 2.704c0 .331-.021.629-.064.896h-6.736c.053.704.315 1.269.784 1.696s1.045.64 1.728.64c.981 0 1.675-.411 2.08-1.232h1.968a4 4 0 0 1-1.456 2c-.693.512-1.557.768-2.592.768-.843 0-1.6-.187-2.272-.56-.661-.384-1.184-.917-1.568-1.6-.373-.693-.56-1.493-.56-2.4s.181-1.701.544-2.384c.373-.693.891-1.227 1.552-1.6.672-.373 1.44-.56 2.304-.56.832 0 1.573.181 2.224.544a3.83 3.83 0 0 1 1.52 1.536c.363.651.544 1.403.544 2.256zm-1.904-.576c-.011-.672-.251-1.211-.72-1.616s-1.051-.608-1.744-.608c-.629 0-1.168.203-1.616.608-.448.395-.715.933-.8 1.616h4.88zm5.523-2.336c.267-.448.619-.795 1.056-1.04.448-.256.976-.384 1.584-.384v1.888h-.464c-.715 0-1.259.181-1.632.544-.363.363-.544.992-.544 1.888V16h-1.824V7.184h1.824v1.28z" fill="#101828"/></svg>
