<svg xmlns="http://www.w3.org/2000/svg" width="33" height="32" fill="none"><path d="M31.691 26a1 1 0 0 1-1 1h-28a1 1 0 0 1-1-1 1 1 0 0 1 1-1h28a1 1 0 0 1 1 1zM2.729 12.273a1 1 0 0 1 .439-1.125l13-8a1 1 0 0 1 1.047 0l13 8a1 1 0 0 1 .439 1.125 1 1 0 0 1-.963.728h-3v8h2a1 1 0 0 1 1 1 1 1 0 0 1-1 1h-24a1 1 0 0 1-1-1 1 1 0 0 1 1-1h2v-8h-3a1 1 0 0 1-.962-.727zM18.691 20a1 1 0 0 0 1 1 1 1 0 0 0 1-1v-6a1 1 0 0 0-1-1 1 1 0 0 0-1 1v6zm-6 0a1 1 0 0 0 1 1 1 1 0 0 0 1-1v-6a1 1 0 0 0-1-1 1 1 0 0 0-1 1v6z" fill="#fdb022"/></svg>
