<svg xmlns="http://www.w3.org/2000/svg" width="89" height="21" fill="none"><path d="M6.986 13.201h18.667v1.333H6.986v-1.333zm21.333 4v-12h-24v12h24zm-26.667-16h29.333v18.667H1.652V1.201zm5.333 6.667h9.333v2.667H6.986V7.868z" fill="#7b68ee"/><path d="M36.911 10.95c0-1.088.251-2.064.752-2.928.512-.864 1.2-1.536 2.064-2.016.875-.491 1.829-.736 2.864-.736 1.184 0 2.235.293 3.152.88.928.576 1.6 1.397 2.016 2.464h-2.192c-.288-.587-.688-1.024-1.2-1.312s-1.104-.432-1.776-.432c-.736 0-1.392.165-1.968.496s-1.029.805-1.36 1.424c-.32.619-.48 1.339-.48 2.16s.16 1.541.48 2.16c.331.619.784 1.099 1.36 1.44.576.331 1.232.496 1.968.496.672 0 1.264-.144 1.776-.432s.912-.725 1.2-1.312h2.192c-.416 1.067-1.088 1.888-2.016 2.464-.917.576-1.968.864-3.152.864-1.045 0-2-.24-2.864-.72-.864-.491-1.552-1.168-2.064-2.032-.501-.864-.752-1.84-.752-2.928zm17.543-3.376c.672 0 1.269.144 1.792.432.533.288.949.715 1.248 1.28.309.565.464 1.248.464 2.048v5.2H56.15v-4.928c0-.789-.197-1.392-.592-1.808-.395-.427-.933-.64-1.616-.64s-1.227.213-1.632.64c-.395.416-.592 1.019-.592 1.808v4.928h-1.824V4.694h1.824v4.048a3.07 3.07 0 0 1 1.168-.864 3.99 3.99 0 0 1 1.568-.304zm13.911 4.336a5.71 5.71 0 0 1-.064.896h-6.736c.053.704.315 1.269.784 1.696s1.045.64 1.728.64c.981 0 1.675-.411 2.08-1.232h1.968c-.267.811-.752 1.477-1.456 2-.693.512-1.557.768-2.592.768-.843 0-1.6-.187-2.272-.56-.661-.384-1.184-.917-1.568-1.6-.373-.693-.56-1.493-.56-2.4s.181-1.701.544-2.384c.373-.693.891-1.227 1.552-1.6.672-.373 1.44-.56 2.304-.56.832 0 1.573.181 2.224.544a3.83 3.83 0 0 1 1.52 1.536c.363.651.544 1.403.544 2.256zm-1.904-.576c-.011-.672-.251-1.211-.72-1.616s-1.051-.608-1.744-.608c-.629 0-1.168.203-1.616.608-.448.395-.715.933-.8 1.616h4.88zm3.091.784c0-.907.181-1.701.544-2.384.373-.693.885-1.227 1.536-1.6s1.397-.56 2.24-.56c1.067 0 1.947.256 2.64.768.704.501 1.179 1.221 1.424 2.16h-1.968a2.08 2.08 0 0 0-.768-1.024c-.352-.245-.795-.368-1.328-.368-.747 0-1.344.267-1.792.8-.437.523-.656 1.259-.656 2.208s.219 1.691.656 2.224c.448.533 1.045.8 1.792.8 1.056 0 1.755-.464 2.096-1.392h1.968c-.256.896-.736 1.611-1.44 2.144-.704.523-1.579.784-2.624.784-.843 0-1.589-.187-2.24-.56-.651-.384-1.163-.917-1.536-1.6-.363-.693-.544-1.493-.544-2.4zm13.69.016l4.064 4.4h-2.464l-3.264-3.792v3.792h-1.824V4.694h1.824v6.88l3.2-3.856h2.528l-4.064 4.416z" fill="#101828"/></svg>
