<svg xmlns="http://www.w3.org/2000/svg" width="25" height="24" fill="none"><use href="#B" fill="#fc6"/><use href="#C" fill="#ffba55"/><use href="#D" fill="#f8834b"/><use href="#B" fill="#fc6"/><use href="#C" fill="#ffba55"/><use href="#D" fill="#f8834b"/><path d="M22.532 11.2a1.31 1.31 0 0 0-1.686-.446l-6.842 3.337c.054-.092.098-.19.132-.291.068-.18.11-.369.124-.561v-.005c.078-1.135-.839-2.119-1.969-2.114H9.334l-.137-.415a1.32 1.32 0 0 0-1.253-.909H5.918c-.117 0-.229.047-.312.13s-.129.195-.13.312v6.144a.45.45 0 0 0 .256.402l4.82 2.22c1.011.453 2.132.601 3.225.426a5.69 5.69 0 0 0 2.932-1.41l5.615-5.084a1.31 1.31 0 0 0 .207-1.735z" fill="#f6ccaf"/><path d="M22.324 12.934l-5.614 5.084a5.69 5.69 0 0 1-6.157.984l-4.82-2.22a.45.45 0 0 1-.256-.401v-.883c.001.084.025.167.07.238s.11.128.186.164l4.82 2.22c1.011.453 2.132.601 3.225.426s2.113-.665 2.932-1.41l5.615-5.084c.162-.148.287-.332.362-.539.09.246.104.513.04.767s-.205.482-.402.655z" fill="#f3bd98"/><path d="M5.033 18.182H2.387a.44.44 0 0 1-.441-.441V9.355a.44.44 0 0 1 .441-.441h2.646a1.33 1.33 0 0 1 1.327 1.326v6.616a1.33 1.33 0 0 1-.389.937c-.249.249-.586.389-.938.389z" fill="#425b72"/><path d="M4.598 14.998c-.003.577-.88.577-.883 0 .003-.577.88-.577.883 0z" fill="#1f2f42"/><path d="M1.947 9.356v8.386a.44.44 0 0 0 .441.441h2.646c.315-.001.62-.114.86-.32s.397-.49.446-.801l4.215 1.943a5.7 5.7 0 0 0 3.225.424c1.094-.175 2.112-.664 2.932-1.408l5.616-5.086c.942-.797.24-2.419-.96-2.316V5.825c0-.351-.14-.688-.388-.936s-.585-.388-.936-.388c-1.595.002-5.055-.002-6.621 0H9.451c-.351 0-.688.14-.936.388s-.388.585-.388.936v3.987c-.011-.027-1.766-.01-1.846-.014a1.32 1.32 0 0 0-1.246-.883H2.389a.44.44 0 0 0-.312.129.44.44 0 0 0-.129.312zM15.63 5.383v1.812l-.634-.433c-.368-.265-.78.237-1.132.433V5.383h1.766zm-6.179 0h3.531v2.648c.016.13.059.261.17.339.073.057.163.091.256.095s.186-.02.264-.07l1.075-.735 1.075.735c.088.059.194.084.299.072s.202-.062.274-.14c.078-.076.101-.192.118-.296V5.383h3.531a.44.44 0 0 1 .312.129c.083.083.129.195.13.312v5.108L13.991 14.1c.784-1.252-.214-3.02-1.697-2.978H9.338c-.08-.234-.171-.595-.328-.787v-4.51a.44.44 0 0 1 .441-.441zm-1.088 5.599c.165.385.179 1.025.656 1.022h3.276c.293 0 .573.116.78.323s.323.488.323.78-.116.573-.323.78-.488.323-.78.323h-1.961a.44.44 0 0 0-.441.441.44.44 0 0 0 .441.441h3.531c.067 0 .133-.015.193-.044l7.038-3.433.006-.003.134-.065c.095-.053.207-.067.313-.04s.196.095.253.188c.065.088.094.197.081.306s-.066.209-.149.28l-5.614 5.085c-.692.629-1.552 1.043-2.475 1.191s-1.87.025-2.724-.356l-4.559-2.102V10.68h1.583a.44.44 0 0 1 .419.303zM2.83 9.797h2.205c.118 0 .23.047.313.13s.13.196.13.313v6.616c0 .118-.047.23-.13.314s-.196.13-.314.13H2.83V9.797z" fill="#000"/><defs ><path id="B" d="M17.396 16.416H8.568a.44.44 0 0 1-.441-.441V5.824c0-.351.14-.688.388-.936S9.1 4.5 9.451 4.5h10.593c.351 0 .688.14.936.388s.388.585.388.936v7.062a.44.44 0 0 1-.039.182c-.026.057-.064.108-.111.15l-3.531 3.089a.44.44 0 0 1-.291.109z"/><path id="C" d="M17.837 11.12h-1.324c-.577-.003-.578-.88 0-.883h1.324c.577.002.577.88 0 .883z"/><path id="D" d="M15.823 8.395l-1.075-.735-1.075.735c-.277.203-.702-.021-.69-.364V4.941a.44.44 0 0 1 .441-.441h2.648a.44.44 0 0 1 .441.441v3.089c.01.343-.413.568-.691.364z"/></defs></svg>
