<svg xmlns="http://www.w3.org/2000/svg" width="163" height="21" fill="none"><use href="#B" fill="#fc6"/><use href="#C" fill="#ffba55"/><use href="#D" fill="#f8834b"/><use href="#B" fill="#fc6"/><use href="#C" fill="#ffba55"/><use href="#D" fill="#f8834b"/><path d="M18.22 9.379a1.02 1.02 0 0 0-1.309-.346l-5.312 2.591c.042-.072.076-.148.103-.226.053-.14.085-.286.096-.435v-.003c.061-.881-.651-1.645-1.529-1.642H7.973l-.106-.322c-.067-.205-.197-.384-.372-.511s-.385-.195-.601-.195H5.32c-.091 0-.178.036-.242.101s-.1.151-.101.242v4.771a.35.35 0 0 0 .199.312l3.742 1.724a4.42 4.42 0 0 0 4.781-.764l4.36-3.948a1.02 1.02 0 0 0 .161-1.347z" fill="#f6ccaf"/><path d="M18.059 10.726L13.7 14.674a4.42 4.42 0 0 1-4.781.764l-3.743-1.724a.35.35 0 0 1-.199-.312v-.685c0 .066.019.129.055.184s.085.099.144.127l3.742 1.724a4.42 4.42 0 0 0 4.781-.764l4.36-3.948a1.05 1.05 0 0 0 .281-.418c.07.191.081.398.031.595s-.159.374-.312.508z" fill="#f3bd98"/><path d="M4.633 14.8H2.578c-.091 0-.178-.036-.242-.1s-.1-.151-.1-.242V7.946c0-.091.036-.178.1-.242s.151-.1.242-.1h2.054a1.03 1.03 0 0 1 1.03 1.03v5.137a1.03 1.03 0 0 1-1.03 1.03z" fill="#425b72"/><path d="M4.292 12.328c-.002.448-.684.448-.685 0s.683-.448.685 0z" fill="#1f2f42"/><path d="M2.236 7.947v6.512c0 .091.036.178.1.242s.151.1.242.1h2.055a1.03 1.03 0 0 0 1.014-.87l3.273 1.508c.785.351 1.655.465 2.504.329a4.43 4.43 0 0 0 2.277-1.094l4.36-3.949c.731-.619.186-1.878-.745-1.798V5.205a1.03 1.03 0 0 0-1.028-1.028c-1.239.002-3.925-.001-5.141 0H8.062a1.03 1.03 0 0 0-1.028 1.028v3.096c-.009-.021-1.371-.008-1.434-.011-.07-.2-.201-.374-.374-.497s-.381-.189-.593-.189H2.579c-.045 0-.09.009-.131.026s-.079.042-.111.074-.057.07-.074.111-.026.086-.026.131zM12.86 4.863v1.407l-.492-.336c-.286-.206-.606.184-.879.336V4.863h1.371zm-4.798 0h2.742v2.056c.013.101.046.202.132.263a.35.35 0 0 0 .404.02l.835-.57.835.57c.068.046.15.065.232.056s.157-.048.212-.109c.061-.059.079-.149.092-.23V4.863h2.742c.091 0 .178.036.242.101s.1.151.1.242v3.966l-5.043 2.459c.609-.972-.166-2.345-1.317-2.313H7.975c-.062-.182-.133-.462-.255-.611V5.205c0-.091.036-.178.1-.242s.151-.1.242-.101zM7.218 9.21c.128.299.139.796.509.793h2.543c.227 0 .445.09.606.251s.251.379.251.606-.09.445-.251.606-.379.251-.606.251H8.748c-.091 0-.178.036-.242.1s-.1.151-.1.242.036.178.1.242.151.1.242.1h2.742c.052 0 .103-.012.15-.035l5.465-2.665.108-.053c.074-.041.161-.052.243-.031s.152.074.197.146c.05.068.073.153.063.238s-.051.162-.116.217l-4.359 3.948a3.74 3.74 0 0 1-4.037.649l-3.54-1.632V8.975h1.229a.34.34 0 0 1 .201.065c.058.042.102.102.124.17zm-4.296-.92h1.712c.091 0 .179.037.243.101s.101.152.101.243v5.137c0 .091-.036.179-.101.243s-.152.101-.243.101H2.922V8.29z" fill="#000"/><path d="M24.911 10.416c0-1.088.251-2.064.752-2.928.512-.864 1.2-1.536 2.064-2.016.875-.491 1.829-.736 2.864-.736 1.184 0 2.235.293 3.152.88.928.576 1.6 1.397 2.016 2.464h-2.192c-.288-.587-.688-1.024-1.2-1.312s-1.104-.432-1.776-.432c-.736 0-1.392.165-1.968.496s-1.029.805-1.36 1.424c-.32.619-.48 1.339-.48 2.16s.16 1.541.48 2.16c.331.619.784 1.099 1.36 1.44.576.331 1.232.496 1.968.496.672 0 1.264-.144 1.776-.432s.912-.725 1.2-1.312h2.192c-.416 1.067-1.088 1.888-2.016 2.464-.917.576-1.968.864-3.152.864-1.045 0-2-.24-2.864-.72-.864-.491-1.552-1.168-2.064-2.032-.501-.864-.752-1.84-.752-2.928zm12.375 1.136c0-.885.181-1.669.544-2.352.373-.683.875-1.211 1.504-1.584.64-.384 1.344-.576 2.112-.576.693 0 1.296.139 1.808.416.523.267.939.603 1.248 1.008v-1.28h1.84V16h-1.84v-1.312c-.309.416-.731.763-1.264 1.04s-1.141.416-1.824.416c-.757 0-1.451-.192-2.08-.576-.629-.395-1.131-.939-1.504-1.632-.363-.704-.544-1.499-.544-2.384zm7.216.032c0-.608-.128-1.136-.384-1.584-.245-.448-.571-.789-.976-1.024s-.843-.352-1.312-.352-.907.117-1.312.352c-.405.224-.736.56-.992 1.008-.245.437-.368.96-.368 1.568s.123 1.141.368 1.6a2.79 2.79 0 0 0 .992 1.056 2.63 2.63 0 0 0 1.312.352c.469 0 .907-.117 1.312-.352s.731-.576.976-1.024c.256-.459.384-.992.384-1.6zm7.436 4.56c-.693 0-1.317-.123-1.872-.368-.544-.256-.976-.597-1.296-1.024a2.59 2.59 0 0 1-.512-1.456h1.888a1.32 1.32 0 0 0 .528.944c.331.245.741.368 1.232.368.512 0 .907-.096 1.184-.288.288-.203.432-.459.432-.768 0-.331-.16-.576-.48-.736-.309-.16-.805-.336-1.488-.528l-1.616-.528a2.9 2.9 0 0 1-1.088-.784c-.299-.352-.448-.816-.448-1.392 0-.469.139-.896.416-1.28.277-.395.672-.704 1.184-.928.523-.224 1.12-.336 1.792-.336 1.003 0 1.808.256 2.416.768.619.501.949 1.189.992 2.064h-1.824c-.032-.395-.192-.709-.48-.944s-.677-.352-1.168-.352c-.48 0-.848.091-1.104.272a.84.84 0 0 0-.384.72.78.78 0 0 0 .256.592c.171.16.379.288.624.384l1.088.336c.64.171 1.163.347 1.568.528a2.84 2.84 0 0 1 1.072.768c.299.341.453.795.464 1.36a2.28 2.28 0 0 1-.416 1.344c-.277.395-.672.704-1.184.928-.501.224-1.093.336-1.776.336zm9.907-9.104c.672 0 1.269.144 1.792.432.533.288.949.715 1.248 1.28.309.565.464 1.248.464 2.048V16h-1.808v-4.928c0-.789-.197-1.392-.592-1.808-.395-.427-.933-.64-1.616-.64s-1.227.213-1.632.64c-.395.416-.592 1.019-.592 1.808V16h-1.824V4.16h1.824v4.048a3.07 3.07 0 0 1 1.168-.864 3.99 3.99 0 0 1 1.568-.304zm15.059 9.072c-1.035 0-1.989-.24-2.864-.72-.864-.491-1.552-1.168-2.064-2.032-.501-.875-.752-1.856-.752-2.944s.251-2.064.752-2.928c.512-.864 1.2-1.536 2.064-2.016.875-.491 1.829-.736 2.864-.736 1.045 0 2 .245 2.864.736a5.28 5.28 0 0 1 2.064 2.016c.501.864.752 1.84.752 2.928s-.251 2.069-.752 2.944c-.501.864-1.189 1.541-2.064 2.032-.864.48-1.819.72-2.864.72zm0-1.584c.736 0 1.392-.165 1.968-.496.576-.341 1.024-.821 1.344-1.44.331-.629.496-1.355.496-2.176s-.165-1.541-.496-2.16a3.4 3.4 0 0 0-1.344-1.424c-.576-.331-1.232-.496-1.968-.496s-1.392.165-1.968.496-1.029.805-1.36 1.424c-.32.619-.48 1.339-.48 2.16s.16 1.547.48 2.176c.331.619.784 1.099 1.36 1.44.576.331 1.232.496 1.968.496zM88.827 7.04c.693 0 1.312.144 1.856.432a3.06 3.06 0 0 1 1.296 1.28c.309.565.464 1.248.464 2.048V16h-1.808v-4.928c0-.789-.197-1.392-.592-1.808-.395-.427-.933-.64-1.616-.64s-1.227.213-1.632.64c-.395.416-.592 1.019-.592 1.808V16h-1.824V7.184h1.824v1.008c.299-.363.677-.645 1.136-.848.469-.203.965-.304 1.488-.304zm13.731-2.16c1.184 0 2.218.229 3.104.688.896.448 1.584 1.099 2.064 1.952.49.843.736 1.829.736 2.96s-.246 2.112-.736 2.944c-.48.832-1.168 1.472-2.064 1.92-.886.437-1.92.656-3.104.656h-3.632V4.88h3.632zm0 9.632c1.301 0 2.298-.352 2.992-1.056s1.04-1.696 1.04-2.976c0-1.291-.347-2.299-1.04-3.024s-1.691-1.088-2.992-1.088h-1.808v8.144h1.808zm15.791-3.136c0 .331-.021.629-.064.896h-6.736c.054.704.315 1.269.784 1.696s1.046.64 1.728.64c.982 0 1.675-.411 2.08-1.232h1.968c-.266.811-.752 1.477-1.456 2-.693.512-1.557.768-2.592.768-.842 0-1.6-.187-2.272-.56-.661-.384-1.184-.917-1.568-1.6-.373-.693-.56-1.493-.56-2.4s.182-1.701.544-2.384c.374-.693.891-1.227 1.552-1.6.672-.373 1.44-.56 2.304-.56.832 0 1.574.181 2.224.544s1.158.875 1.52 1.536c.363.651.544 1.403.544 2.256zm-1.904-.576c-.01-.672-.25-1.211-.72-1.616s-1.05-.608-1.744-.608c-.629 0-1.168.203-1.616.608-.448.395-.714.933-.8 1.616h4.88zm5.523-6.64V16h-1.824V4.16h1.824zm3.323 1.856a1.13 1.13 0 0 1-.832-.336 1.13 1.13 0 0 1-.336-.832 1.13 1.13 0 0 1 .336-.832 1.13 1.13 0 0 1 .832-.336 1.11 1.11 0 0 1 .816.336 1.13 1.13 0 0 1 .336.832 1.13 1.13 0 0 1-.336.832 1.11 1.11 0 0 1-.816.336zm.896 1.168V16h-1.824V7.184h1.824zm5.803 7.184l2.496-7.184h1.936L133.062 16h-2.176l-3.344-8.816h1.952l2.496 7.184zm13.891-2.992c0 .331-.022.629-.064.896h-6.736c.053.704.314 1.269.784 1.696s1.045.64 1.728.64c.981 0 1.674-.411 2.08-1.232h1.968a4 4 0 0 1-1.456 2c-.694.512-1.558.768-2.592.768-.843 0-1.6-.187-2.272-.56a4.18 4.18 0 0 1-1.568-1.6c-.374-.693-.56-1.493-.56-2.4s.181-1.701.544-2.384a3.93 3.93 0 0 1 1.552-1.6c.672-.373 1.44-.56 2.304-.56.832 0 1.573.181 2.224.544s1.157.875 1.52 1.536c.362.651.544 1.403.544 2.256zm-1.904-.576c-.011-.672-.251-1.211-.72-1.616s-1.051-.608-1.744-.608c-.63 0-1.168.203-1.616.608-.448.395-.715.933-.8 1.616h4.88zm5.523-2.336a2.81 2.81 0 0 1 1.056-1.04c.448-.256.976-.384 1.584-.384v1.888h-.464c-.715 0-1.259.181-1.632.544-.363.363-.544.992-.544 1.888V16h-1.824V7.184h1.824v1.28zm12.252-1.28l-5.408 12.96h-1.888l1.792-4.288-3.472-8.672h2.032l2.48 6.72 2.576-6.72h1.888z" fill="#101828"/><defs ><path id="B" d="M14.231 13.43H7.377c-.091 0-.178-.036-.242-.1s-.1-.151-.1-.242V5.204a1.03 1.03 0 0 1 1.028-1.028h8.225a1.03 1.03 0 0 1 1.028 1.028v5.483c0 .049-.01.097-.031.142s-.05.084-.086.116l-2.742 2.399c-.062.055-.143.085-.226.085z"/><path id="C" d="M14.573 9.317h-1.028c-.448-.002-.448-.684 0-.685h1.028c.448.002.448.684 0 .685z"/><path id="D" d="M13.009 7.201l-.835-.57-.835.57c-.215.158-.545-.016-.536-.283V4.519c0-.091.036-.178.1-.242s.151-.1.242-.1h2.056c.091 0 .178.036.242.1s.1.151.1.242v2.399c.008.267-.32.441-.536.283z"/></defs></svg>
