<svg xmlns="http://www.w3.org/2000/svg" width="75" height="20" fill="none"><g clip-path="url(#A)"><path d="M23.995 4.08a.31.31 0 0 0-.303.266l-1.75 11.397a.3.3 0 0 0 .007.125c.011.041.031.078.057.11s.06.058.097.075.078.027.119.027h2.076a.31.31 0 0 0 .303-.266l.514-3.347a.31.31 0 0 1 .303-.266h1.887c2.205 0 4.077-1.652 4.419-3.89.345-2.257-1.373-4.226-3.807-4.231h-3.923zm2.018 2.544h1.51c1.243 0 1.648.753 1.52 1.586s-.757 1.449-1.959 1.449h-1.537l.466-3.035zm9.934.775c-.524.002-1.127.112-1.804.402-1.553.665-2.299 2.038-2.616 3.04 0 0-1.008 3.056 1.27 4.734 0 0 2.113 1.616 4.491-.1l-.041.268a.3.3 0 0 0 .007.125c.011.04.031.078.057.11s.06.058.097.075.078.027.119.027h1.971a.31.31 0 0 0 .303-.266l1.199-7.805a.3.3 0 0 0-.007-.125c-.011-.041-.031-.078-.057-.11s-.06-.058-.097-.076-.078-.027-.119-.027h-1.971a.31.31 0 0 0-.303.266l-.064.42s-.86-.965-2.433-.959zm.064 2.465a1.97 1.97 0 0 1 .619.093c.85.28 1.332 1.119 1.193 2.028-.172 1.119-1.066 1.944-2.213 1.944-.226 0-.433-.032-.619-.093-.85-.28-1.335-1.119-1.196-2.028.172-1.119 1.069-1.944 2.215-1.944z" fill="#003087"/><path d="M52.374 4.08a.31.31 0 0 0-.303.266l-1.75 11.397a.3.3 0 0 0 .007.125c.011.041.031.078.057.11s.06.058.097.075.078.027.119.027h2.076a.31.31 0 0 0 .303-.266l.514-3.347a.31.31 0 0 1 .303-.266h1.887c2.205 0 4.077-1.652 4.419-3.89.345-2.257-1.372-4.226-3.807-4.231h-3.922zm2.018 2.544h1.51c1.243 0 1.648.753 1.52 1.586s-.757 1.449-1.959 1.449h-1.537l.466-3.035zm9.934.775c-.524.002-1.127.112-1.804.402-1.553.665-2.299 2.038-2.616 3.04 0 0-1.008 3.056 1.27 4.734 0 0 2.112 1.616 4.49-.1l-.041.268c-.006.042-.004.084.007.125s.031.078.058.11.06.058.097.075.078.027.119.027h1.97a.31.31 0 0 0 .303-.266l1.199-7.805a.3.3 0 0 0-.007-.125c-.011-.041-.031-.078-.057-.11s-.06-.058-.097-.075-.078-.027-.119-.027h-1.971a.31.31 0 0 0-.303.266l-.064.42s-.861-.965-2.433-.959zm.064 2.465a1.97 1.97 0 0 1 .619.093c.85.28 1.332 1.119 1.193 2.028-.172 1.119-1.066 1.944-2.213 1.944-.226 0-.433-.032-.619-.093-.85-.28-1.335-1.119-1.196-2.028.172-1.119 1.069-1.944 2.215-1.944z" fill="#0070e0"/><path d="M41.934 7.672c-.156 0-.267.157-.22.309l2.16 6.883-1.953 3.244c-.095.157.015.361.196.361h2.309c.066 0 .131-.018.188-.051a.39.39 0 0 0 .14-.139L50.788 8.03c.093-.157-.018-.359-.197-.359h-2.309c-.067 0-.132.018-.19.052a.39.39 0 0 0-.14.142l-2.375 4.117-1.206-4.086c-.039-.133-.159-.224-.294-.224h-2.143z" fill="#003087"/><path d="M71.616 4.08a.31.31 0 0 0-.303.266l-1.751 11.397a.3.3 0 0 0 .007.125c.011.041.031.078.057.11s.06.058.097.075.078.027.119.027h2.076a.31.31 0 0 0 .303-.266l1.75-11.397a.3.3 0 0 0-.007-.125c-.011-.041-.031-.078-.057-.11s-.06-.058-.097-.075-.078-.027-.119-.027h-2.076z" fill="#0070e0"/><path d="M6.691 4.08c-.134 0-.263.049-.365.138a.58.58 0 0 0-.19.348l-.921 6c.043-.28.278-.487.555-.487h2.7c2.717 0 5.023-2.035 5.444-4.793a4.73 4.73 0 0 0 .053-.622c-.691-.372-1.502-.585-2.391-.585H6.691z" fill="#001c64"/><path d="M13.966 4.665c-.004.208-.022.416-.053.622-.421 2.758-2.727 4.793-5.444 4.793h-2.7c-.276 0-.512.206-.555.487l-.847 5.514-.531 3.459a.48.48 0 0 0 .011.2.47.47 0 0 0 .092.177c.043.052.096.093.156.121s.125.043.191.043h2.931c.134 0 .263-.049.365-.138a.58.58 0 0 0 .19-.348l.772-5.027a.58.58 0 0 1 .19-.348c.102-.089.231-.138.365-.138h1.725c2.717 0 5.023-2.035 5.444-4.793.299-1.958-.661-3.739-2.302-4.622z" fill="#0070e0"/><path d="M3.36.081c-.276 0-.512.206-.555.486L.506 15.54c-.044.284.17.541.451.541h3.41l.847-5.514.921-6a.58.58 0 0 1 .19-.348c.102-.089.231-.138.365-.138h4.886a5.02 5.02 0 0 1 2.391.585C14.013 2.154 11.995.081 9.22.081H3.36z" fill="#003087"/></g><defs><clipPath id="A"><path fill="#fff" transform="translate(.5)" d="M0 0h74v20H0z"/></clipPath></defs></svg>
