<svg xmlns="http://www.w3.org/2000/svg" width="33" height="32" fill="#4a8cff"><path d="M13.598 17.32c.133 0 3.227.133 5.067-.32h.013c2.12-.52 5.067-2.013 5.827-6.893 0 0 1.693-6.107-6.707-6.107h-7.213c-.653 0-1.213.48-1.32 1.12L6.198 24.533a.67.67 0 0 0 .653.773h4.573l1.12-7.093c.08-.507.52-.893 1.053-.893zm12.08-6.267c-1.08 4.973-4.48 7.6-9.893 7.6h-1.96l-1.373 8.693c-.053.347.213.653.56.653h2.533c.453 0 .853-.333.92-.787.107-.533.693-4.427.813-5.093.067-.453.467-.787.92-.787h.587c3.76 0 6.707-1.533 7.573-5.947.347-1.787.16-3.253-.68-4.333z"/></svg>
