<svg xmlns="http://www.w3.org/2000/svg" width="20" height="20" fill="none"><g clip-path="url(#A)"><path d="M18.7 10.666l-12.119 6.67c-.319.175-.695.217-1.045.116s-.645-.338-.82-.657l-3.693-6.71C.848 9.765.806 9.39.907 9.04s.338-.645.657-.82l12.118-6.671c.319-.176.695-.217 1.045-.116s.645.338.82.657l3.693 6.71c.175.319.217.695.116 1.044s-.338.645-.657.82v.001z" fill="#febc1f"/><path d="M18.436 10.185l-12.119 6.67c-.319.176-.695.217-1.045.116s-.645-.338-.82-.657L.758 9.604C.583 9.285.541 8.909.643 8.559s.338-.645.657-.82l12.119-6.671c.319-.176.695-.217 1.045-.116s.645.338.82.657l3.693 6.71c.175.319.217.695.115 1.044s-.338.645-.657.82h0z" fill="#ffd475"/><path d="M13.418 1.069L1.3 7.739c-.319.176-.555.471-.657.82s-.06.725.116 1.045l3.693 6.711S1.01 9.733 14.644 1.021a1.37 1.37 0 0 0-1.225.048z" fill="#febc1f"/><path d="M1.844 10.427l.464.843a.44.44 0 0 0 .596.173l12.785-7.036a.44.44 0 0 0 .173-.596l-.464-.843a.44.44 0 0 0-.596-.173L2.017 9.831a.44.44 0 0 0-.173.596z" fill="#1d2943"/><path d="M1.715 10.193l.464.843a.44.44 0 0 0 .596.173L15.56 4.172a.44.44 0 0 0 .173-.596l-.464-.843a.44.44 0 0 0-.596-.173L1.888 9.597a.44.44 0 0 0-.173.596h0z" fill="#4c5c75"/><path d="M16.509 19.102H2.676c-.364 0-.713-.145-.971-.402s-.402-.607-.402-.971v-7.66c0-.364.145-.713.402-.971s.607-.402.971-.402h13.832c.364 0 .713.145.971.402s.402.607.402.971v7.66c0 .364-.145.713-.402.971s-.606.402-.971.402z" fill="#5094ff"/><path d="M2.676 18.552h13.833c.18 0 .359-.035.526-.104a1.37 1.37 0 0 0 .446-.298c.128-.128.229-.279.298-.446s.105-.345.105-.526V9.52c0-.364-.145-.713-.402-.971s-.607-.402-.971-.402H2.676c-.18 0-.359.036-.526.105s-.318.17-.446.298-.229.279-.298.446-.105.345-.105.526v7.659c0 .18.035.359.104.526a1.37 1.37 0 0 0 .743.743c.167.069.345.105.526.105h0z" fill="#57b3fe"/><path d="M2.676 8.147h13.833c.364 0 .713.145.971.402s.402.607.402.971v7.659s-.158-7.425-16.303-8.483a1.37 1.37 0 0 1 1.096-.549h0z" fill="#5094ff"/><path d="M16.806 16.088v.213h-.003c.006.288-.235.53-.525.53h-1.393c-.284 0-.53-.238-.524-.53h-.003v-.213h.034c.082-.207.306-.349.542-.349h1.297c.235 0 .459.142.541.349h.034z" fill="#e3e7f0"/><path d="M16.277 16.62H14.93c-.271 0-.528-.184-.566-.453a.53.53 0 0 1 .124-.424.53.53 0 0 1 .401-.184h1.341c.288 0 .556.209.573.496a.53.53 0 0 1-.141.397.53.53 0 0 1-.386.168z" fill="#fff"/><path d="M12.813 16.088v.213h-.003c.006.288-.235.53-.524.53h-1.393c-.285 0-.53-.238-.525-.53h-.003v-.213h.034c.082-.207.306-.349.542-.349h1.297c.235 0 .459.142.542.349h.034z" fill="#e3e7f0"/><path d="M12.284 16.62h-1.347c-.271 0-.528-.184-.566-.453a.53.53 0 0 1 .123-.424.53.53 0 0 1 .401-.184h1.342c.288 0 .556.209.574.496a.53.53 0 0 1-.141.397.53.53 0 0 1-.386.168z" fill="#fff"/><path d="M8.82 16.088v.213h-.003c.006.288-.235.53-.525.53H6.899c-.285 0-.53-.238-.525-.53h-.003v-.213h.034c.082-.207.306-.349.541-.349h1.297c.235 0 .459.142.541.349h.034z" fill="#e3e7f0"/><path d="M8.291 16.62H6.945c-.271 0-.528-.184-.566-.453a.53.53 0 0 1 .124-.424.53.53 0 0 1 .401-.184h1.341c.288 0 .556.209.574.496a.53.53 0 0 1-.141.397.53.53 0 0 1-.386.168z" fill="#fff"/><path d="M4.827 16.088v.213h-.003c.006.288-.235.53-.524.53H2.907c-.285 0-.53-.238-.525-.53h-.003v-.213h.034c.082-.207.306-.349.542-.349h1.297c.235 0 .459.142.541.349h.034z" fill="#e3e7f0"/><path d="M4.298 16.62H2.951c-.271 0-.528-.184-.566-.453a.53.53 0 0 1 .123-.424.53.53 0 0 1 .401-.184h1.341c.288 0 .556.209.574.496a.53.53 0 0 1-.141.397.53.53 0 0 1-.386.168z" fill="#fff"/><use href="#B" fill="#febc1f"/><path d="M2.38 10.366v1.281c0 .323.262.585.585.585h2.399c.323 0 .585-.262.585-.585v-1.281c0-.323-.262-.585-.585-.585H2.965c-.323 0-.585.262-.585.585z" fill="#ffd475"/><path d="M4.102 10.869V9.781h-.278v1.087H2.38v.278h.79v1.086h.278v-1.086h1.251v1.086h.278v-1.086h.972v-.278H4.102z" fill="#febc1f"/><path d="M16.553 11.828h-1.564c-.13 0-.253-.088-.272-.217-.005-.036-.003-.073.008-.108s.028-.068.052-.095.053-.05.087-.065.069-.023.106-.023h1.562c.138 0 .266.1.275.238.002.035-.002.069-.014.102s-.03.063-.054.088-.052.046-.084.06-.066.021-.101.021zm0-1.09h-2.746c-.13 0-.253-.088-.272-.218-.005-.036-.003-.073.008-.108s.028-.068.052-.095.053-.05.087-.065.069-.023.106-.023h2.743c.138 0 .267.1.275.238.002.035-.002.069-.014.102s-.03.063-.054.088-.052.046-.084.059-.066.021-.101.021zM16.135 4.8a11.85 11.85 0 0 1 1.598 2.732A11.85 11.85 0 0 1 16.135 4.8zM3.954 7.531A15.11 15.11 0 0 1 7.03 5.707c-.949.728-1.982 1.34-3.076 1.824zm7.867 10.332a15.11 15.11 0 0 1 3.576 0c-1.191.142-2.384.141-3.575 0z" fill="#fff"/></g><defs><clipPath id="A"><path fill="#fff" d="M0 0h20v20H0z"/></clipPath><path id="B" d="M2.38 10.566v1.281c0 .323.262.585.585.585h2.399c.323 0 .585-.262.585-.585v-1.281c0-.323-.262-.585-.585-.585H2.965c-.323 0-.585.262-.585.585z"/></defs></svg>
