<svg xmlns="http://www.w3.org/2000/svg" width="50" height="21" fill="none"><g clip-path="url(#A)"><g fill-rule="evenodd" fill="#635bff"><path d="M49.998 11.224c0-3.418-1.722-6.115-5.014-6.115-3.306 0-5.306 2.697-5.306 6.088 0 4.019 2.361 6.048 5.75 6.048 1.653 0 2.903-.36 3.847-.868v-2.67c-.944.454-2.028.734-3.403.734-1.347 0-2.542-.454-2.694-2.029h6.792l.028-1.188zm-6.861-1.268c0-1.509.958-2.136 1.833-2.136.847 0 1.75.628 1.75 2.136h-3.583zM34.319 5.11c-1.361 0-2.236.614-2.722 1.041l-.181-.828H28.36V20.89l3.472-.708.014-3.778c.5.347 1.236.841 2.458.841 2.486 0 4.75-1.923 4.75-6.155-.014-3.872-2.306-5.981-4.736-5.981zm-.833 9.199c-.819 0-1.306-.28-1.639-.628l-.014-4.953c.361-.387.861-.654 1.653-.654 1.264 0 2.139 1.362 2.139 3.111 0 1.789-.861 3.124-2.139 3.124zm-9.903-9.987l3.486-.721V.891l-3.486.708v2.724z"/></g><path d="M27.069 5.336h-3.486v11.682h3.486V5.336z" fill="#635bff"/><g fill-rule="evenodd"><path d="M19.846 6.324l-.222-.988h-3v11.682h3.472V9.102c.82-1.028 2.208-.841 2.639-.694V5.336c-.444-.16-2.069-.454-2.889.988zm-6.944-3.885l-3.389.694-.014 10.694c0 1.976 1.542 3.431 3.597 3.431 1.139 0 1.972-.2 2.431-.441v-2.71c-.444.174-2.639.788-2.639-1.188V8.18h2.639V5.337h-2.639l.014-2.897zM3.513 8.728c0-.521.444-.721 1.181-.721 1.056 0 2.389.307 3.444.854V5.724c-1.153-.441-2.292-.614-3.444-.614C1.875 5.11 0 6.525 0 8.888c0 3.685 5.278 3.098 5.278 4.686 0 .614-.556.815-1.333.815-1.153 0-2.625-.454-3.792-1.068v3.178a9.96 9.96 0 0 0 3.792.761c2.889 0 4.875-1.375 4.875-3.765-.014-3.979-5.306-3.271-5.306-4.766z" fill="#635bff"/></g></g><defs><clipPath id="A"><path fill="#fff" transform="translate(-.001 .891)" d="M0 0h50v20H0z"/></clipPath></defs></svg>
